<svg xmlns="http://www.w3.org/2000/svg" viewBox="0 0 900 560" font-family="Helvetica, Arial, sans-serif"><rect width="900" height="560" fill="#ffffff"/><text x="450" y="44" text-anchor="middle" font-size="26" font-weight="700" fill="#1a2b4c">Attorney Roster by Side</text><text x="450" y="70" text-anchor="middle" font-size="14" fill="#5a6b85">449 unique attorneys identified across all cases</text><path d="M 300.00 170.00 A 150 150 0 1 1 172.61 399.20 L 232.06 362.24 A 80 80 0 1 0 300.00 240.00 Z" fill="#3b6fb6"/><path d="M 172.61 399.20 A 150 150 0 0 1 300.00 170.00 L 300.00 240.00 A 80 80 0 0 0 232.06 362.24 Z" fill="#2c8aa8"/><text x="300" y="318" text-anchor="middle" font-size="36" font-weight="700" fill="#1a2b4c">449</text><text x="300" y="344" text-anchor="middle" font-size="13" fill="#5a6b85">attorneys</text><rect x="540" y="180" width="22" height="22" fill="#3b6fb6"/><text x="572" y="197" font-size="16" font-weight="600" fill="#1a2b4c">Defense</text><text x="572" y="218" font-size="13" fill="#5a6b85">297 cases  ·  66.1%</text><rect x="540" y="240" width="22" height="22" fill="#2c8aa8"/><text x="572" y="257" font-size="16" font-weight="600" fill="#1a2b4c">Prosecution</text><text x="572" y="278" font-size="13" fill="#5a6b85">152 cases  ·  33.9%</text></svg>